<mxfile host="app.diagrams.net" modified="2023-09-21T17:03:50.001Z" agent="Mozilla/5.0 (X11; Linux x86_64) AppleWebKit/537.36 (KHTML, like Gecko) Chrome/117.0.0.0 Safari/537.36" etag="F41usqaQgU5ewd6RyvlA" version="21.8.0" type="device">
  <diagram name="Page-1" id="e7e014a7-5840-1c2e-5031-d8a46d1fe8dd">
    <mxGraphModel dx="1613" dy="739" grid="1" gridSize="10" guides="1" tooltips="1" connect="1" arrows="1" fold="1" page="1" pageScale="1" pageWidth="1169" pageHeight="826" background="none" math="0" shadow="0">
      <root>
        <mxCell id="0" />
        <mxCell id="1" parent="0" />
        <mxCell id="2" value="Admin" style="swimlane;whiteSpace=wrap" parent="1" vertex="1">
          <mxGeometry x="164.5" y="128" width="280" height="570" as="geometry" />
        </mxCell>
        <mxCell id="YMPhgvGkUeL-KJUxrrO--41" value="" style="ellipse;html=1;shape=startState;fillColor=#000000;strokeColor=#ff0000;" vertex="1" parent="2">
          <mxGeometry x="25.5" y="42" width="30" height="30" as="geometry" />
        </mxCell>
        <mxCell id="YMPhgvGkUeL-KJUxrrO--42" value="" style="edgeStyle=orthogonalEdgeStyle;html=1;verticalAlign=bottom;endArrow=open;endSize=8;strokeColor=#ff0000;rounded=0;exitX=1;exitY=0.5;exitDx=0;exitDy=0;" edge="1" source="YMPhgvGkUeL-KJUxrrO--41" parent="2">
          <mxGeometry relative="1" as="geometry">
            <mxPoint x="139.5" y="102" as="targetPoint" />
          </mxGeometry>
        </mxCell>
        <mxCell id="YMPhgvGkUeL-KJUxrrO--43" value="Enter book and User data" style="rounded=1;whiteSpace=wrap;html=1;" vertex="1" parent="2">
          <mxGeometry x="80" y="192" width="120" height="60" as="geometry" />
        </mxCell>
        <mxCell id="YMPhgvGkUeL-KJUxrrO--58" style="edgeStyle=orthogonalEdgeStyle;rounded=0;orthogonalLoop=1;jettySize=auto;html=1;entryX=0.5;entryY=0;entryDx=0;entryDy=0;" edge="1" parent="2" source="YMPhgvGkUeL-KJUxrrO--57" target="YMPhgvGkUeL-KJUxrrO--43">
          <mxGeometry relative="1" as="geometry" />
        </mxCell>
        <mxCell id="YMPhgvGkUeL-KJUxrrO--57" value="Open Return Page" style="rounded=1;whiteSpace=wrap;html=1;" vertex="1" parent="2">
          <mxGeometry x="80" y="102" width="120" height="60" as="geometry" />
        </mxCell>
        <mxCell id="3" value="Application" style="swimlane;whiteSpace=wrap" parent="1" vertex="1">
          <mxGeometry x="444.5" y="128" width="280" height="570" as="geometry" />
        </mxCell>
        <mxCell id="YMPhgvGkUeL-KJUxrrO--50" value="Return error message about incorrect data" style="rounded=1;whiteSpace=wrap;html=1;" vertex="1" parent="3">
          <mxGeometry x="70" y="202" width="140" height="60" as="geometry" />
        </mxCell>
        <mxCell id="YMPhgvGkUeL-KJUxrrO--63" value="Display message to remind about late fee" style="rounded=1;whiteSpace=wrap;html=1;" vertex="1" parent="3">
          <mxGeometry x="80.5" y="372" width="120" height="60" as="geometry" />
        </mxCell>
        <mxCell id="4" value="Database" style="swimlane;whiteSpace=wrap" parent="1" vertex="1">
          <mxGeometry x="724.5" y="128" width="280" height="570" as="geometry" />
        </mxCell>
        <mxCell id="YMPhgvGkUeL-KJUxrrO--46" value="Check Data Validity" style="rhombus;whiteSpace=wrap;html=1;fontColor=#000000;fillColor=#ffffc0;strokeColor=#ff0000;" vertex="1" parent="4">
          <mxGeometry x="75.5" y="72" width="104.5" height="100" as="geometry" />
        </mxCell>
        <mxCell id="YMPhgvGkUeL-KJUxrrO--47" value="yes" style="edgeStyle=orthogonalEdgeStyle;html=1;align=left;verticalAlign=bottom;endArrow=open;endSize=8;strokeColor=#ff0000;rounded=0;" edge="1" source="YMPhgvGkUeL-KJUxrrO--46" parent="4">
          <mxGeometry x="-1" relative="1" as="geometry">
            <mxPoint x="127.5" y="212" as="targetPoint" />
          </mxGeometry>
        </mxCell>
        <mxCell id="YMPhgvGkUeL-KJUxrrO--48" value="no" style="edgeStyle=orthogonalEdgeStyle;html=1;align=left;verticalAlign=top;endArrow=open;endSize=8;strokeColor=#ff0000;rounded=0;exitX=0;exitY=1;exitDx=0;exitDy=0;" edge="1" source="YMPhgvGkUeL-KJUxrrO--46" parent="4">
          <mxGeometry x="-1" relative="1" as="geometry">
            <mxPoint x="-134.5" y="202" as="targetPoint" />
          </mxGeometry>
        </mxCell>
        <mxCell id="YMPhgvGkUeL-KJUxrrO--52" style="edgeStyle=orthogonalEdgeStyle;rounded=0;orthogonalLoop=1;jettySize=auto;html=1;entryX=0.5;entryY=0;entryDx=0;entryDy=0;" edge="1" parent="4" source="YMPhgvGkUeL-KJUxrrO--49" target="YMPhgvGkUeL-KJUxrrO--51">
          <mxGeometry relative="1" as="geometry" />
        </mxCell>
        <mxCell id="YMPhgvGkUeL-KJUxrrO--49" value="Update book status" style="rounded=1;whiteSpace=wrap;html=1;" vertex="1" parent="4">
          <mxGeometry x="45.5" y="372" width="160" height="45" as="geometry" />
        </mxCell>
        <mxCell id="YMPhgvGkUeL-KJUxrrO--56" style="edgeStyle=orthogonalEdgeStyle;rounded=0;orthogonalLoop=1;jettySize=auto;html=1;entryX=0.5;entryY=0;entryDx=0;entryDy=0;" edge="1" parent="4" source="YMPhgvGkUeL-KJUxrrO--51" target="YMPhgvGkUeL-KJUxrrO--53">
          <mxGeometry relative="1" as="geometry" />
        </mxCell>
        <mxCell id="YMPhgvGkUeL-KJUxrrO--51" value="Remove book from user library" style="rounded=1;whiteSpace=wrap;html=1;" vertex="1" parent="4">
          <mxGeometry x="45.5" y="442" width="160" height="45" as="geometry" />
        </mxCell>
        <mxCell id="YMPhgvGkUeL-KJUxrrO--53" value="" style="ellipse;html=1;shape=endState;fillColor=#000000;strokeColor=#ff0000;" vertex="1" parent="4">
          <mxGeometry x="110.5" y="512" width="30" height="30" as="geometry" />
        </mxCell>
        <mxCell id="YMPhgvGkUeL-KJUxrrO--60" value="Late Fee" style="rhombus;whiteSpace=wrap;html=1;fontColor=#000000;fillColor=#ffffc0;strokeColor=#ff0000;" vertex="1" parent="4">
          <mxGeometry x="85.5" y="212" width="80" height="40" as="geometry" />
        </mxCell>
        <mxCell id="YMPhgvGkUeL-KJUxrrO--66" value="" style="shape=line;html=1;strokeWidth=6;strokeColor=#ff0000;" vertex="1" parent="4">
          <mxGeometry x="25.5" y="322" width="200" height="10" as="geometry" />
        </mxCell>
        <mxCell id="YMPhgvGkUeL-KJUxrrO--67" value="" style="edgeStyle=orthogonalEdgeStyle;html=1;verticalAlign=bottom;endArrow=open;endSize=8;strokeColor=#ff0000;rounded=0;entryX=0.5;entryY=0;entryDx=0;entryDy=0;" edge="1" source="YMPhgvGkUeL-KJUxrrO--66" parent="4" target="YMPhgvGkUeL-KJUxrrO--49">
          <mxGeometry relative="1" as="geometry">
            <mxPoint x="475.5" y="432" as="targetPoint" />
          </mxGeometry>
        </mxCell>
        <mxCell id="YMPhgvGkUeL-KJUxrrO--62" value="no" style="edgeStyle=orthogonalEdgeStyle;html=1;align=left;verticalAlign=top;endArrow=open;endSize=8;strokeColor=#ff0000;rounded=0;entryX=0.75;entryY=0.5;entryDx=0;entryDy=0;entryPerimeter=0;" edge="1" source="YMPhgvGkUeL-KJUxrrO--60" parent="4" target="YMPhgvGkUeL-KJUxrrO--66">
          <mxGeometry x="-1" relative="1" as="geometry">
            <mxPoint x="125.5" y="312" as="targetPoint" />
          </mxGeometry>
        </mxCell>
        <mxCell id="YMPhgvGkUeL-KJUxrrO--45" style="edgeStyle=orthogonalEdgeStyle;rounded=0;orthogonalLoop=1;jettySize=auto;html=1;entryX=0;entryY=0.5;entryDx=0;entryDy=0;exitX=0.998;exitY=0.6;exitDx=0;exitDy=0;exitPerimeter=0;" edge="1" parent="1" source="YMPhgvGkUeL-KJUxrrO--43" target="YMPhgvGkUeL-KJUxrrO--46">
          <mxGeometry relative="1" as="geometry">
            <mxPoint x="804.5" y="250" as="targetPoint" />
            <Array as="points">
              <mxPoint x="470" y="356" />
              <mxPoint x="470" y="250" />
            </Array>
          </mxGeometry>
        </mxCell>
        <mxCell id="YMPhgvGkUeL-KJUxrrO--59" style="edgeStyle=orthogonalEdgeStyle;rounded=0;orthogonalLoop=1;jettySize=auto;html=1;entryX=0;entryY=0.5;entryDx=0;entryDy=0;" edge="1" parent="1" source="YMPhgvGkUeL-KJUxrrO--50" target="YMPhgvGkUeL-KJUxrrO--57">
          <mxGeometry relative="1" as="geometry">
            <Array as="points">
              <mxPoint x="585" y="430" />
              <mxPoint x="200" y="430" />
              <mxPoint x="200" y="260" />
            </Array>
          </mxGeometry>
        </mxCell>
        <mxCell id="YMPhgvGkUeL-KJUxrrO--61" value="yes" style="edgeStyle=orthogonalEdgeStyle;html=1;align=left;verticalAlign=bottom;endArrow=open;endSize=8;strokeColor=#ff0000;rounded=0;entryX=0.861;entryY=0.017;entryDx=0;entryDy=0;entryPerimeter=0;" edge="1" source="YMPhgvGkUeL-KJUxrrO--60" parent="1" target="YMPhgvGkUeL-KJUxrrO--63">
          <mxGeometry x="-1" relative="1" as="geometry">
            <mxPoint x="990" y="360" as="targetPoint" />
            <Array as="points">
              <mxPoint x="690" y="360" />
              <mxPoint x="690" y="440" />
              <mxPoint x="628" y="440" />
            </Array>
          </mxGeometry>
        </mxCell>
        <mxCell id="YMPhgvGkUeL-KJUxrrO--68" style="edgeStyle=orthogonalEdgeStyle;rounded=0;orthogonalLoop=1;jettySize=auto;html=1;exitX=1;exitY=0.5;exitDx=0;exitDy=0;entryX=0.25;entryY=0.5;entryDx=0;entryDy=0;entryPerimeter=0;" edge="1" parent="1" source="YMPhgvGkUeL-KJUxrrO--63" target="YMPhgvGkUeL-KJUxrrO--66">
          <mxGeometry relative="1" as="geometry">
            <Array as="points">
              <mxPoint x="710" y="530" />
              <mxPoint x="710" y="420" />
              <mxPoint x="800" y="420" />
            </Array>
          </mxGeometry>
        </mxCell>
      </root>
    </mxGraphModel>
  </diagram>
</mxfile>
